# Blender 4.2.3 LTS
# www.blender.org
mtllib arrow.mtl
o Cube.008
v -0.021339 -1.000000 0.026977
v -0.021339 1.000000 0.026977
v -0.021339 -1.000000 -0.026977
v -0.021339 1.000000 -0.026977
v 0.021339 -1.000000 0.026977
v 0.021339 1.000000 0.026977
v 0.021339 -1.000000 -0.026977
v 0.021339 1.000000 -0.026977
v -0.021339 -0.875000 0.026977
v -0.021339 -0.750000 0.026977
v -0.021339 -0.625000 0.026977
v -0.021339 -0.500000 0.026977
v -0.021339 -0.375000 0.026977
v -0.021339 -0.250000 0.026977
v -0.021339 -0.125000 0.026977
v -0.021339 0.000000 0.026977
v -0.021339 0.125000 0.026977
v -0.021339 0.250000 0.026977
v -0.021339 0.375000 0.026977
v -0.021339 0.500000 0.026977
v -0.021339 0.625000 0.026977
v -0.021339 0.750000 0.026977
v -0.021339 0.875000 0.026977
v -0.021339 0.875000 -0.026977
v -0.021339 0.750000 -0.026977
v -0.021339 0.625000 -0.026977
v -0.021339 0.500000 -0.026977
v -0.021339 0.375000 -0.026977
v -0.021339 0.250000 -0.026977
v -0.021339 0.125000 -0.026977
v -0.021339 0.000000 -0.026977
v -0.021339 -0.125000 -0.026977
v -0.021339 -0.250000 -0.026977
v -0.021339 -0.375000 -0.026977
v -0.021339 -0.500000 -0.026977
v -0.021339 -0.625000 -0.026977
v -0.021339 -0.750000 -0.026977
v -0.021339 -0.875000 -0.026977
v 0.021339 0.875000 -0.026977
v 0.021339 0.750000 -0.026977
v 0.021339 0.625000 -0.026977
v 0.021339 0.500000 -0.026977
v 0.021339 0.375000 -0.026977
v 0.021339 0.250000 -0.026977
v 0.021339 0.125000 -0.026977
v 0.021339 0.000000 -0.026977
v 0.021339 -0.125000 -0.026977
v 0.021339 -0.250000 -0.026977
v 0.021339 -0.375000 -0.026977
v 0.021339 -0.500000 -0.026977
v 0.021339 -0.625000 -0.026977
v 0.021339 -0.750000 -0.026977
v 0.021339 -0.875000 -0.026977
v 0.021339 0.875000 0.026977
v 0.021339 0.750000 0.026977
v 0.021339 0.625000 0.026977
v 0.021339 0.500000 0.026977
v 0.021339 0.375000 0.026977
v 0.021339 0.250000 0.026977
v 0.021339 0.125000 0.026977
v 0.021339 0.000000 0.026977
v 0.021339 -0.125000 0.026977
v 0.021339 -0.250000 0.026977
v 0.021339 -0.375000 0.026977
v 0.021339 -0.500000 0.026977
v 0.021339 -0.625000 0.026977
v 0.021339 -0.750000 0.026977
v 0.021339 -0.875000 0.026977
v 0.000000 -1.000000 -0.026977
v 0.000000 1.000000 -0.026977
v 0.000000 -1.000000 0.026977
v 0.000000 1.000000 0.026977
v 0.000000 -0.875000 0.026977
v 0.000000 -0.750000 0.026977
v 0.000000 -0.625000 0.026977
v 0.000000 -0.500000 0.026977
v 0.000000 -0.375000 0.026977
v 0.000000 -0.250000 0.026977
v 0.000000 -0.125000 0.026977
v 0.000000 0.000000 0.026977
v 0.000000 0.125000 0.026977
v 0.000000 0.250000 0.026977
v 0.000000 0.375000 0.026977
v 0.000000 0.500000 0.026977
v 0.000000 0.625000 0.026977
v 0.000000 0.750000 0.026977
v 0.000000 0.875000 0.026977
v 0.000000 -0.875000 -0.026977
v 0.000000 -0.750000 -0.026977
v 0.000000 -0.625000 -0.026977
v 0.000000 -0.500000 -0.026977
v 0.000000 -0.375000 -0.026977
v 0.000000 -0.250000 -0.026977
v 0.000000 -0.125000 -0.026977
v 0.000000 0.000000 -0.026977
v 0.000000 0.125000 -0.026977
v 0.000000 0.250000 -0.026977
v 0.000000 0.375000 -0.026977
v 0.000000 0.500000 -0.026977
v 0.000000 0.625000 -0.026977
v 0.000000 0.750000 -0.026977
v 0.000000 0.875000 -0.026977
v -0.021339 -1.000000 0.000000
v -0.021339 1.000000 0.000000
v 0.021339 -1.000000 0.000000
v 0.021339 1.000000 0.000000
v 0.021339 -0.875000 0.000000
v 0.021339 -0.750000 0.000000
v 0.021339 -0.625000 0.000000
v 0.021339 -0.500000 0.000000
v 0.021339 -0.375000 0.000000
v 0.021339 -0.250000 0.000000
v 0.021339 -0.125000 0.000000
v 0.021339 0.000000 0.000000
v 0.021339 0.125000 0.000000
v 0.021339 0.250000 0.000000
v 0.021339 0.375000 0.000000
v 0.021339 0.500000 0.000000
v 0.021339 0.625000 0.000000
v 0.021339 0.750000 0.000000
v 0.021339 0.875000 0.000000
v -0.021339 -0.875000 0.000000
v -0.021339 -0.750000 0.000000
v -0.021339 -0.625000 0.000000
v -0.021339 -0.500000 0.000000
v -0.021339 -0.375000 0.000000
v -0.021339 -0.250000 0.000000
v -0.021339 -0.125000 0.000000
v -0.021339 0.000000 0.000000
v -0.021339 0.125000 0.000000
v -0.021339 0.250000 0.000000
v -0.021339 0.375000 0.000000
v -0.021339 0.500000 0.000000
v -0.021339 0.625000 0.000000
v -0.021339 0.750000 0.000000
v -0.021339 0.875000 0.000000
v 0.000000 -1.000000 0.000000
v -0.000804 0.937668 -0.090303
v 0.071028 0.937668 0.000378
v -0.000804 0.937668 0.091059
v -0.072635 0.937668 0.000378
v -0.000804 1.331405 0.000378
v 0.001551 -1.106020 -0.047997
v 0.011073 -1.106020 -0.033941
v 0.015017 -1.106020 -0.000007
v 0.011073 -1.106020 0.033927
v 0.001551 -1.106020 0.047983
v -0.007971 -1.106020 0.033927
v -0.011915 -1.106020 -0.000007
v -0.007971 -1.106020 -0.033941
v 0.001551 -0.851949 -0.000007
vn -1.0000 -0.0000 -0.0000
vn -0.0000 -0.0000 -1.0000
vn 1.0000 -0.0000 -0.0000
vn -0.0000 -0.0000 1.0000
vn -0.0000 -1.0000 -0.0000
vn -0.0000 1.0000 -0.0000
vn 0.7760 0.1416 -0.6147
vn 0.7760 0.1416 0.6147
vn -0.7760 0.1416 0.6147
vn -0.7760 0.1416 -0.6147
vn 0.8233 0.1053 -0.5577
vn 0.9919 0.0526 -0.1153
vn 0.9919 0.0526 0.1153
vn 0.8233 0.1053 0.5577
vn -0.8233 0.1053 0.5577
vn -0.9919 0.0526 0.1153
vn -0.9919 0.0526 -0.1153
vn -0.8233 0.1053 -0.5577
vt 0.609375 0.125000
vt 0.625000 0.125000
vt 0.625000 0.250000
vt 0.609375 0.250000
vt 0.609375 0.375000
vt 0.625000 0.375000
vt 0.625000 0.500000
vt 0.609375 0.500000
vt 0.609375 0.625000
vt 0.625000 0.625000
vt 0.625000 0.750000
vt 0.609375 0.750000
vt 0.609375 0.875000
vt 0.625000 0.875000
vt 0.625000 1.000000
vt 0.609375 1.000000
vt 0.250000 0.625000
vt 0.375000 0.625000
vt 0.375000 0.750000
vt 0.250000 0.750000
vt 0.375000 0.875000
vt 0.390625 0.875000
vt 0.390625 1.000000
vt 0.375000 1.000000
vt 0.406250 0.875000
vt 0.406250 1.000000
vt 0.421875 0.875000
vt 0.421875 1.000000
vt 0.437500 0.875000
vt 0.437500 1.000000
vt 0.453125 0.875000
vt 0.453125 1.000000
vt 0.468750 0.875000
vt 0.468750 1.000000
vt 0.484375 0.875000
vt 0.484375 1.000000
vt 0.500000 0.875000
vt 0.500000 1.000000
vt 0.515625 0.875000
vt 0.515625 1.000000
vt 0.531250 0.875000
vt 0.531250 1.000000
vt 0.546875 0.875000
vt 0.546875 1.000000
vt 0.562500 0.875000
vt 0.562500 1.000000
vt 0.578125 0.875000
vt 0.578125 1.000000
vt 0.593750 0.875000
vt 0.593750 1.000000
vt 0.390625 0.625000
vt 0.390625 0.750000
vt 0.406250 0.625000
vt 0.406250 0.750000
vt 0.421875 0.625000
vt 0.421875 0.750000
vt 0.437500 0.625000
vt 0.437500 0.750000
vt 0.453125 0.625000
vt 0.453125 0.750000
vt 0.468750 0.625000
vt 0.468750 0.750000
vt 0.484375 0.625000
vt 0.484375 0.750000
vt 0.500000 0.625000
vt 0.500000 0.750000
vt 0.515625 0.625000
vt 0.515625 0.750000
vt 0.531250 0.625000
vt 0.531250 0.750000
vt 0.546875 0.625000
vt 0.546875 0.750000
vt 0.562500 0.625000
vt 0.562500 0.750000
vt 0.578125 0.625000
vt 0.578125 0.750000
vt 0.593750 0.625000
vt 0.593750 0.750000
vt 0.375000 0.375000
vt 0.390625 0.375000
vt 0.390625 0.500000
vt 0.375000 0.500000
vt 0.406250 0.375000
vt 0.406250 0.500000
vt 0.421875 0.375000
vt 0.421875 0.500000
vt 0.437500 0.375000
vt 0.437500 0.500000
vt 0.453125 0.375000
vt 0.453125 0.500000
vt 0.468750 0.375000
vt 0.468750 0.500000
vt 0.484375 0.375000
vt 0.484375 0.500000
vt 0.500000 0.375000
vt 0.500000 0.500000
vt 0.515625 0.375000
vt 0.515625 0.500000
vt 0.531250 0.375000
vt 0.531250 0.500000
vt 0.546875 0.375000
vt 0.546875 0.500000
vt 0.562500 0.375000
vt 0.562500 0.500000
vt 0.578125 0.375000
vt 0.578125 0.500000
vt 0.593750 0.375000
vt 0.593750 0.500000
vt 0.375000 0.125000
vt 0.390625 0.125000
vt 0.390625 0.250000
vt 0.375000 0.250000
vt 0.406250 0.125000
vt 0.406250 0.250000
vt 0.421875 0.125000
vt 0.421875 0.250000
vt 0.437500 0.125000
vt 0.437500 0.250000
vt 0.453125 0.125000
vt 0.453125 0.250000
vt 0.468750 0.125000
vt 0.468750 0.250000
vt 0.484375 0.125000
vt 0.484375 0.250000
vt 0.500000 0.125000
vt 0.500000 0.250000
vt 0.515625 0.125000
vt 0.515625 0.250000
vt 0.531250 0.125000
vt 0.531250 0.250000
vt 0.546875 0.125000
vt 0.546875 0.250000
vt 0.562500 0.125000
vt 0.562500 0.250000
vt 0.578125 0.125000
vt 0.578125 0.250000
vt 0.593750 0.125000
vt 0.593750 0.250000
vt 0.125000 0.625000
vt 0.125000 0.750000
vt 0.125000 0.500000
vt 0.250000 0.500000
vt 0.593750 0.000000
vt 0.609375 0.000000
vt 0.578125 0.000000
vt 0.562500 0.000000
vt 0.546875 0.000000
vt 0.531250 0.000000
vt 0.515625 0.000000
vt 0.500000 0.000000
vt 0.484375 0.000000
vt 0.468750 0.000000
vt 0.453125 0.000000
vt 0.437500 0.000000
vt 0.421875 0.000000
vt 0.406250 0.000000
vt 0.390625 0.000000
vt 0.375000 0.000000
vt 0.625000 0.000000
vt 0.250000 0.490000
vt 0.250000 0.250000
vt 0.490000 0.250000
vt 0.250000 0.010000
vt 0.750000 0.490000
vt 0.990000 0.250000
vt 0.750000 0.010000
vt 0.510000 0.250000
vt 0.010000 0.250000
vt 0.419706 0.419706
vt 0.419706 0.080294
vt 0.080294 0.080294
vt 0.919706 0.419706
vt 0.919706 0.080294
vt 0.580294 0.080294
vt 0.580294 0.419706
vt 0.080294 0.419706
s 0
usemtl Material.015
f 136/1/1 104/2/1 4/3/1 24/4/1
f 102/5/2 70/6/2 8/7/2 39/8/2
f 121/9/3 106/10/3 6/11/3 54/12/3
f 87/13/4 72/14/4 2/15/4 23/16/4
f 137/17/5 105/18/5 5/19/5 71/20/5
f 71/21/4 73/22/4 9/23/4 1/24/4
f 73/22/4 74/25/4 10/26/4 9/23/4
f 74/25/4 75/27/4 11/28/4 10/26/4
f 75/27/4 76/29/4 12/30/4 11/28/4
f 76/29/4 77/31/4 13/32/4 12/30/4
f 77/31/4 78/33/4 14/34/4 13/32/4
f 78/33/4 79/35/4 15/36/4 14/34/4
f 79/35/4 80/37/4 16/38/4 15/36/4
f 80/37/4 81/39/4 17/40/4 16/38/4
f 81/39/4 82/41/4 18/42/4 17/40/4
f 82/41/4 83/43/4 19/44/4 18/42/4
f 83/43/4 84/45/4 20/46/4 19/44/4
f 84/45/4 85/47/4 21/48/4 20/46/4
f 85/47/4 86/49/4 22/50/4 21/48/4
f 86/49/4 87/13/4 23/16/4 22/50/4
f 105/18/3 107/51/3 68/52/3 5/19/3
f 107/51/3 108/53/3 67/54/3 68/52/3
f 108/53/3 109/55/3 66/56/3 67/54/3
f 109/55/3 110/57/3 65/58/3 66/56/3
f 110/57/3 111/59/3 64/60/3 65/58/3
f 111/59/3 112/61/3 63/62/3 64/60/3
f 112/61/3 113/63/3 62/64/3 63/62/3
f 113/63/3 114/65/3 61/66/3 62/64/3
f 114/65/3 115/67/3 60/68/3 61/66/3
f 115/67/3 116/69/3 59/70/3 60/68/3
f 116/69/3 117/71/3 58/72/3 59/70/3
f 117/71/3 118/73/3 57/74/3 58/72/3
f 118/73/3 119/75/3 56/76/3 57/74/3
f 119/75/3 120/77/3 55/78/3 56/76/3
f 120/77/3 121/9/3 54/12/3 55/78/3
f 69/79/2 88/80/2 53/81/2 7/82/2
f 88/80/2 89/83/2 52/84/2 53/81/2
f 89/83/2 90/85/2 51/86/2 52/84/2
f 90/85/2 91/87/2 50/88/2 51/86/2
f 91/87/2 92/89/2 49/90/2 50/88/2
f 92/89/2 93/91/2 48/92/2 49/90/2
f 93/91/2 94/93/2 47/94/2 48/92/2
f 94/93/2 95/95/2 46/96/2 47/94/2
f 95/95/2 96/97/2 45/98/2 46/96/2
f 96/97/2 97/99/2 44/100/2 45/98/2
f 97/99/2 98/101/2 43/102/2 44/100/2
f 98/101/2 99/103/2 42/104/2 43/102/2
f 99/103/2 100/105/2 41/106/2 42/104/2
f 100/105/2 101/107/2 40/108/2 41/106/2
f 101/107/2 102/5/2 39/8/2 40/108/2
f 103/109/1 122/110/1 38/111/1 3/112/1
f 122/110/1 123/113/1 37/114/1 38/111/1
f 123/113/1 124/115/1 36/116/1 37/114/1
f 124/115/1 125/117/1 35/118/1 36/116/1
f 125/117/1 126/119/1 34/120/1 35/118/1
f 126/119/1 127/121/1 33/122/1 34/120/1
f 127/121/1 128/123/1 32/124/1 33/122/1
f 128/123/1 129/125/1 31/126/1 32/124/1
f 129/125/1 130/127/1 30/128/1 31/126/1
f 130/127/1 131/129/1 29/130/1 30/128/1
f 131/129/1 132/131/1 28/132/1 29/130/1
f 132/131/1 133/133/1 27/134/1 28/132/1
f 133/133/1 134/135/1 26/136/1 27/134/1
f 134/135/1 135/137/1 25/138/1 26/136/1
f 135/137/1 136/1/1 24/4/1 25/138/1
f 25/138/2 24/4/2 102/5/2 101/107/2
f 26/136/2 25/138/2 101/107/2 100/105/2
f 27/134/2 26/136/2 100/105/2 99/103/2
f 28/132/2 27/134/2 99/103/2 98/101/2
f 29/130/2 28/132/2 98/101/2 97/99/2
f 30/128/2 29/130/2 97/99/2 96/97/2
f 31/126/2 30/128/2 96/97/2 95/95/2
f 32/124/2 31/126/2 95/95/2 94/93/2
f 33/122/2 32/124/2 94/93/2 93/91/2
f 34/120/2 33/122/2 93/91/2 92/89/2
f 35/118/2 34/120/2 92/89/2 91/87/2
f 36/116/2 35/118/2 91/87/2 90/85/2
f 37/114/2 36/116/2 90/85/2 89/83/2
f 38/111/2 37/114/2 89/83/2 88/80/2
f 3/112/2 38/111/2 88/80/2 69/79/2
f 55/78/4 54/12/4 87/13/4 86/49/4
f 56/76/4 55/78/4 86/49/4 85/47/4
f 57/74/4 56/76/4 85/47/4 84/45/4
f 58/72/4 57/74/4 84/45/4 83/43/4
f 59/70/4 58/72/4 83/43/4 82/41/4
f 60/68/4 59/70/4 82/41/4 81/39/4
f 61/66/4 60/68/4 81/39/4 80/37/4
f 62/64/4 61/66/4 80/37/4 79/35/4
f 63/62/4 62/64/4 79/35/4 78/33/4
f 64/60/4 63/62/4 78/33/4 77/31/4
f 65/58/4 64/60/4 77/31/4 76/29/4
f 66/56/4 65/58/4 76/29/4 75/27/4
f 67/54/4 66/56/4 75/27/4 74/25/4
f 68/52/4 67/54/4 74/25/4 73/22/4
f 5/19/4 68/52/4 73/22/4 71/21/4
f 103/139/5 137/17/5 71/20/5 1/140/5
f 54/12/4 6/11/4 72/14/4 87/13/4
f 24/4/2 4/3/2 70/6/2 102/5/2
f 3/141/5 69/142/5 137/17/5 103/139/5
f 22/143/1 23/144/1 136/1/1 135/137/1
f 21/145/1 22/143/1 135/137/1 134/135/1
f 20/146/1 21/145/1 134/135/1 133/133/1
f 19/147/1 20/146/1 133/133/1 132/131/1
f 18/148/1 19/147/1 132/131/1 131/129/1
f 17/149/1 18/148/1 131/129/1 130/127/1
f 16/150/1 17/149/1 130/127/1 129/125/1
f 15/151/1 16/150/1 129/125/1 128/123/1
f 14/152/1 15/151/1 128/123/1 127/121/1
f 13/153/1 14/152/1 127/121/1 126/119/1
f 12/154/1 13/153/1 126/119/1 125/117/1
f 11/155/1 12/154/1 125/117/1 124/115/1
f 10/156/1 11/155/1 124/115/1 123/113/1
f 9/157/1 10/156/1 123/113/1 122/110/1
f 1/158/1 9/157/1 122/110/1 103/109/1
f 40/108/3 39/8/3 121/9/3 120/77/3
f 41/106/3 40/108/3 120/77/3 119/75/3
f 42/104/3 41/106/3 119/75/3 118/73/3
f 43/102/3 42/104/3 118/73/3 117/71/3
f 44/100/3 43/102/3 117/71/3 116/69/3
f 45/98/3 44/100/3 116/69/3 115/67/3
f 46/96/3 45/98/3 115/67/3 114/65/3
f 47/94/3 46/96/3 114/65/3 113/63/3
f 48/92/3 47/94/3 113/63/3 112/61/3
f 49/90/3 48/92/3 112/61/3 111/59/3
f 50/88/3 49/90/3 111/59/3 110/57/3
f 51/86/3 50/88/3 110/57/3 109/55/3
f 52/84/3 51/86/3 109/55/3 108/53/3
f 53/81/3 52/84/3 108/53/3 107/51/3
f 7/82/3 53/81/3 107/51/3 105/18/3
f 69/142/5 7/82/5 105/18/5 137/17/5
f 39/8/3 8/7/3 106/10/3 121/9/3
f 23/144/1 2/159/1 104/2/1 136/1/1
f 104/2/6 2/159/6 72/14/6 6/11/6 106/10/6 8/7/6 70/6/6 4/3/6
usemtl Stones
f 138/160/7 142/161/7 139/162/7
f 139/162/8 142/161/8 140/163/8
f 138/164/5 139/165/5 140/166/5 141/167/5
f 140/163/9 142/161/9 141/168/9
f 141/168/10 142/161/10 138/160/10
usemtl Material.009
f 143/160/11 151/161/11 144/169/11
f 144/169/12 151/161/12 145/162/12
f 145/162/13 151/161/13 146/170/13
f 146/170/14 151/161/14 147/163/14
f 147/163/15 151/161/15 148/171/15
f 148/171/16 151/161/16 149/168/16
f 143/164/5 144/172/5 145/165/5 146/173/5 147/166/5 148/174/5 149/167/5 150/175/5
f 149/168/17 151/161/17 150/176/17
f 150/176/18 151/161/18 143/160/18
